Coordinates
version=1
nRows=4
nColumns=63
inDegrees=yes

Units are S.I. units (second, meters, Newtons, ...)
If the header above contains a line with 'inDegrees', this indicates whether rotational values are in degrees (yes) or radians (no).

endheader
time	pelvis_tilt	pelvis_list	pelvis_rotation	pelvis_tx	pelvis_ty	pelvis_tz	hip_flexion_r	hip_adduction_r	hip_rotation_r	knee_angle_r	knee_angle_r_beta	ankle_angle_r	subtalar_angle_r	mtp_angle_r	hip_flexion_l	hip_adduction_l	hip_rotation_l	knee_angle_l	knee_angle_l_beta	ankle_angle_l	subtalar_angle_l	mtp_angle_l	L5_S1_Flex_Ext	L5_S1_Lat_Bending	L5_S1_axial_rotation	L4_L5_Flex_Ext	L4_L5_Lat_Bending	L4_L5_axial_rotation	L3_L4_Flex_Ext	L3_L4_Lat_Bending	L3_L4_axial_rotation	L2_L3_Flex_Ext	L2_L3_Lat_Bending	L2_L3_axial_rotation	L1_L2_Flex_Ext	L1_L2_Lat_Bending	L1_L2_axial_rotation	L1_T12_Flex_Ext	L1_T12_Lat_Bending	L1_T12_axial_rotation	Abs_r3	Abs_r2	Abs_r1	Abs_t1	Abs_t2	neck_flexion	neck_bending	neck_rotation	arm_flex_r	arm_add_r	arm_rot_r	elbow_flex_r	pro_sup_r	wrist_flex_r	wrist_dev_r	arm_flex_l	arm_add_l	arm_rot_l	elbow_flex_l	pro_sup_l	wrist_flex_l	wrist_dev_l
      4.36734694	     -6.06127788	    -14.16012596	     92.41813538	      0.28184146	      0.45348032	      0.89820548	     19.42217386	     -5.44401656	      4.59037369	     18.75447918	      0.32732741	     25.61192379	    -11.59077681	      0.00000000	     13.71493875	      6.28539928	     -7.71745824	      5.94746226	      0.10380280	     24.18650569	     14.11820988	      0.00000000	     -0.45416439	     -0.38633199	      0.50215288	     -0.84342870	     -0.51382154	      0.53353744	     -0.74614668	     -0.93932759	      0.53353744	     -0.51906449	     -0.93932759	      0.43938377	     -0.42173706	     -0.78780819	      0.40799922	     -0.25950953	     -0.59842825	      0.37661466	     -3.24405085	     -4.37026471	      2.79282369	      0.00000000	      0.00000000	     18.56319883	     13.43053860	    -11.15294952	     58.11959423	     -2.60249571	     12.98523757	    140.06216857	     89.19634578	     -0.15600187	     27.97479837	      2.06188223	    -21.40651857	     22.57579524	     29.90761455	     75.16326393	     -6.98429056	      1.09743821
      4.38775510	     -5.97053061	    -14.18830451	     92.25652553	      0.28204966	      0.45397427	      0.89821839	     19.51908154	     -5.30994914	      4.76127279	     18.43222018	      0.32170293	     25.88180619	    -11.24410152	      0.00000000	     13.54925456	      6.18196484	     -7.63478358	      5.43129697	      0.09479401	     24.24454776	     14.10475428	      0.00000000	     -0.45066453	     -0.39023406	      0.48989017	     -0.83692910	     -0.51901130	      0.52050831	     -0.74039675	     -0.94881509	      0.52050831	     -0.51506449	     -0.94881509	      0.42865390	     -0.41848708	     -0.79576530	      0.39803576	     -0.25750971	     -0.60447256	      0.36741763	     -3.21905166	     -4.41440574	      2.72462217	      0.00000000	      0.00000000	     18.86552986	     13.31127301	    -11.18714798	     59.16564351	     -2.33459313	     12.89055202	    141.23819041	     89.11657150	     -0.20539724	     30.92367896	      2.16954009	    -21.63065146	     23.15374809	     27.93162767	     74.83785955	     -7.23010898	      2.19937874
      4.40816327	     -5.90967460	    -14.22519130	     92.24660892	      0.28207305	      0.45443773	      0.89794142	     19.60887490	     -5.23263793	      4.98342831	     18.19344004	      0.31753543	     26.23563735	    -11.11605663	      0.00000000	     13.49319293	      6.11792264	     -7.60893781	      5.16920323	      0.09021962	     24.40920772	     14.13318825	      0.00000000	     -0.44015332	     -0.39933612	      0.46756447	     -0.81740872	     -0.53111704	      0.49678724	     -0.72312788	     -0.97094584	      0.49678724	     -0.50305122	     -0.97094584	      0.40911891	     -0.40872637	     -0.81432622	      0.37989613	     -0.25150360	     -0.61857165	      0.35067335	     -3.14397112	     -4.51737007	      2.60045329	      0.00000000	      0.00000000	     18.93686854	     13.32453774	    -11.27470851	     59.83397531	     -2.30159011	     12.85894316	    141.95364445	     89.06860063	     -0.13984099	     31.43657030	      2.07072812	    -21.88560526	     23.20220813	     26.58029093	     74.73309348	     -7.35323939	      2.74729169
      4.42857143	     -5.66840392	    -14.02567954	     92.14897822	      0.28232541	      0.45534974	      0.89743292	     19.37317845	     -4.95653886	      4.96405447	     17.82255373	      0.31106224	     26.35748230	    -10.73154739	      0.00000000	     13.09477694	      5.85098089	     -7.67885566	      4.71182035	      0.08223678	     24.37827889	     14.16359453	      0.00000000	     -0.46227542	     -0.38759680	      0.58271581	     -0.85849168	     -0.51550374	      0.61913555	     -0.75947228	     -0.94240286	      0.61913555	     -0.52833457	     -0.94240286	      0.50987634	     -0.42926895	     -0.79038739	      0.47345660	     -0.26414417	     -0.60038744	      0.43703686	     -3.30198707	     -4.38457251	      3.24089054	      0.00000000	      0.00000000	     18.66784336	     13.20017969	    -11.66449758	     60.33319777	     -2.85530422	     12.40328314	    142.88363165	     89.05902299	      0.26408988	     32.82147110	      2.43259288	    -22.08133918	     23.85283559	     25.51589861	     74.26103915	     -6.93513595	      3.65638040
